<svg width="40" height="40" viewBox="0 0 40 40" fill="none" xmlns="http://www.w3.org/2000/svg">
<rect width="40" height="40" rx="20" fill="#AAAAAA"/>
<path d="M27.0385 21.4138C26.9679 21.4862 26.7012 21.7962 26.4528 22.0512C24.9963 23.655 21.197 26.28 19.2085 27.0813C18.9065 27.21 18.143 27.4825 17.735 27.5C17.3441 27.5 16.9715 27.41 16.6159 27.2275C16.1727 26.9725 15.8171 26.5713 15.6223 26.0975C15.4968 25.7688 15.302 24.785 15.302 24.7675C15.1072 23.6913 15 21.9425 15 20.01C15 18.1688 15.1072 16.4913 15.2667 15.3988C15.2849 15.3812 15.4798 14.1588 15.6929 13.74C16.0838 12.975 16.8473 12.5 17.6644 12.5H17.735C18.2672 12.5187 19.3863 12.9938 19.3863 13.0113C21.2677 13.8138 24.9793 16.31 26.471 17.9688C26.471 17.9688 26.8911 18.395 27.0738 18.6613C27.3587 19.0437 27.5 19.5175 27.5 19.9913C27.5 20.52 27.3405 21.0125 27.0385 21.4138Z" fill="white"/>
</svg>
